<?xml version="1.0" ?><!DOCTYPE svg  PUBLIC '-//W3C//DTD SVG 1.1//EN'  'http://www.w3.org/Graphics/SVG/1.1/DTD/svg11.dtd'><svg enable-background="new 0 0 512 512" height="512px" id="Layer_1" version="1.1" viewBox="0 0 512 512" width="512px" xml:space="preserve" xmlns="http://www.w3.org/2000/svg" xmlns:xlink="http://www.w3.org/1999/xlink"><g><path clip-rule="evenodd" d="M404.066,239.308c-3.396-16.081-9.472-23.91-26.347-23.467   c-102.839,2.428-205.587-3.84-308.426,0.342c-22.082,0.858-30.778,11.558-33.132,32.255c-4.164,37.369-6.776,74.674-3.914,99.193   c2.003,39.289,4.006,65.535,4.44,91.789c0.351,19.045,8.955,26.688,27.474,28.248c33.64,2.955,66.763-4.236,100.319-2.594   c75.375,3.563,151.093-10.173,226.459,4.349c17.476,3.296,26.68-6.269,25.729-25.046c-2.179-39.815-3.822-79.631-5.742-119.447   C409.624,296.34,410.15,267.723,404.066,239.308z M355.638,241.477c-7.126,14.263-20.069,18.167-29.55,25.294   c-30.603,23.135-55.897,51.992-84.589,77.12c-7.736,6.693-13.653,11.733-24.334,3.213c-44.607-35.81-89.897-70.687-137.79-105.627   H355.638z M373.64,442.208c-54.596-7.478-109.366-4.865-164.396-1.735c-42.687,2.511-85.798-1.838-128.651,2.787   c-10.523,1.034-17.826-2.012-18.61-15.49c-2.696-46.065-5.299-92.14-4.782-138.399c0.259-19.284,7.478-22.072,22.608-11.982   c42.511,28.165,83.37,58.593,122.918,90.673c23.3,18.942,27.99,19.025,50.598-0.536c37.212-32.236,69.716-69.966,111.785-96.746   c13.922-8.872,19.479-8.346,19.404,9.12c-0.193,25.471-0.092,50.857-0.092,76.336c0.867,0,1.644,0,2.428,0.093   c1.043,23.023,1.652,46.056,3.213,69.098C391.031,438.128,389.463,444.377,373.64,442.208z" fill-rule="evenodd"/><path clip-rule="evenodd" d="M443.854,79.648c-56.202-14.087-114.203-10.681-170.82-20.355   c-43.961-7.505-88.42-12.14-132.704-17.725c-14.668-1.856-27.113,1.338-31.969,17.863c-11.299,38.422-14.899,78.182-20.697,117.564   c-1.357,9.195-1.255,21.334,11.816,22.239c14.226,0.997,11.974-11.77,13.377-20.762c4.837-31.092,9.693-62.202,14.641-93.949   c10.773,3.785,12.749,11.392,17.355,16.607c27.907,31.608,49.767,68.304,81.376,96.774c6.85,6.167,15.528,11.937,22.94,3.655   c7.284-8.151,1.062-16.543-5.797-22.7c-28.664-25.793-48.18-59.239-73.77-87.598c-4.948-5.502-11.521-11.309-10.053-23.919   c91.051,19.266,184.096,21.731,279.152,36.779c-13.515,17.244-27.316,24.51-42.059,30.372   c-30.501,12.084-59.156,27.815-87.201,44.671c-8.124,4.893-18.62,10.506-12.712,22.036c6.563,12.823,16.404,4.487,24.528,0.425   c8.549-4.256,16.931-9,25.008-14.106c34.147-21.546,74.25-31.036,109.514-58.205c-6.701,58.676-12.85,112.403-19.008,166.122   c-1.145,9.934-6.831,23.079,6.859,26.643c14.633,3.821,16.109-10.626,17.281-20.254c7.183-59.313,15.112-118.589,19.646-178.096   C483.089,90.412,476.433,87.818,443.854,79.648z" fill-rule="evenodd"/></g></svg>